/* XPM */
static char * sim_xpm[] = {
"113 114 11 1",
" 	s None  c None",
".	c #FFFFFFFFFFFF",
"X	c #D3D3D3D3D3D3",
"o	c #00000000FFFF",
"O	c #0000B0B0F0F0",
"+	c #3232CDCD3232",
"@	c #0000FFFFFFFF",
"#	c #000000000000",
"$	c #696969696969",
"%	c #C0C0C0C0C0C0",
"&	c #FFFF00000000",
"                                                                                                                 ",
"                                                                                                                 ",
"                                                 ...............                                                 ",
"                                            .....XXXXXXXXXXXXXXX.....                                            ",
"                                        ....XXXXXXXXXXXXXXXXXXXXXXXXX....                                        ",
"                                     ...XXXXXXXXXXXXXXXXXXXXXXXXXXXXXXXXX...                                     ",
"                                   ..XXXXXXXXXXXXXXXXXXXXXXXXXXXXXXXXXXXXXXX..                                   ",
"                                 ..XXXXXXooooooooXXXXXXXXXXXXXXOOOOOOOOXXXXXXX..                                 ",
"                               ..XXXXXXXXooooooooXXXXXXXXXXXXXXOOOOOOOOXXXXXXXXX..                               ",
"                             ..XXXXXXXXXXooooooooXXXXXXXXXXXXXXOOOOOOOOXXXXXXXXXXX..                             ",
"                           ..XXXXXXXXXXXXooooooooXXXXXXXXXXXXXXOOOOOOOOXXXXXXXXXXXXX..                           ",
"                          .XXXXXXXXXXXXXXXXXXXXXXXXXXXXXXXXXXXXXXXXXXXXXXXXXXXXXXXXXXX.                          ",
"                        ..XXXXXXXXXXXXXXXXXXXXXXXXXXXXXX+XXXXXXXXXXXXXXXXXXXXXXXXXXXXXX..                        ",
"                       .XXXXXXXXXXXXXXXXXooooooooXXXX++++++XXXXooooooooXXXXXXXXXXXXXXXXXX.                       ",
"                      .XXXXXXXXXXXXXXXXXXXooooooXXXX++++++++XXXXooooooXXXXXXXXXXXXXXXXXXXX.                      ",
"                     .XXXXXXXXXXXXXXXXXXXXXooooXXXXX+++++++++XXXXooooXXXXXXXXXXXXXXXXXXXXXX.                     ",
"                   ..XXXXXXXXXXXXXXXXXXXXXXXooXXXXXX+++++++++XXXXXooXXXXXXXXXXXXXXXXXXXXXXXX..                   ",
"                  .XXXooXXXXXXXXXXXXXXXXXXXXXXXXXXX++++++++++XXXXXXXXXXXXXXXXXXXXXXXXXX@@XXXXX.                  ",
"                 .XXXooooXXXXXXXXXXXXXXXXXXXXXXXXXXX+++++++++XXXXXXXXXXXXXXXXXXXXXXXXX@@@@XXXXX.                 ",
"                .XXXooooooXXXXXXXXXXXXXXXXXXXXXXXXXX+++++++++XXXXXXXXXXXXXXXXXXXXXXXX@@@@@@XXXXX.                ",
"               .XXXooooooXXXXXXXXXXXXXXXXXXXXXXXXXXX++++++++XXXXXXXXXXXXXXXXXXXXXXXXXX@@@@@@XXXXX.               ",
"               .XXooooooXXXXXXXXXXXXXXXXXXXXXXXXXXXXX++++++XXXXXXXXXXXXXXXXXXXXXXXXXXXX@@@@@@XXXX.#              ",
"              .XXooooooXXXoXXXXXXXXXXXXXXXXXXXXXXXXXXXXXXXXXXXXXXXXXXXXXXXXXXXXXXXXXooXX@@@@@@XXXX#              ",
"             .XXXXooooXXXooXXXXXXXXXXXXXXXXXXXXXXXXXXXXXXXXXXXXXXXXXXXXXXXXXXXXXXXXXoooXX@@@@XXXXXX#             ",
"            .XXXXXXooXXXoooXXXXXXXXXXXXXXXXXXXXXXXXXXXXXXXXXXXXXXXXXXXXXXXXXXXXXXXXXooooXX@@XXXXXXXX#            ",
"           .XXXXXXXXXXXooooXXXXXXXXXXXXXXXXXXXXXXXXXXXXXXXXXXXXXXXXXXXXXXXXXXXXXXXXXoooooXXXXXXXXXXXX#           ",
"           .XXXXXXXXXXXXXXXXXXXXXXXXXXXXXXXXXXXXXXXXXXXXXXXXXXXXXXXXXXXXXXXXXXXXXXXXXXXXXXXXXXXXXXXXX#           ",
"          .XXXXXXXXXXXXXXXXXXXXXXXXXXXXXXXXXXXXXXXXXXXXXXXXXXXXXXXXXXXXXXXXXXXXXXXXXXXXXXXXXXXXXXXXXXX#          ",
"         .XXXXXXXXXXXXXXXXXXXXXXXXXXXXXXXXXXXXXXXXXXXXXXXXXXXXXXXXXXXXXXXXXXXXXXXXXXXXXXXXXXXXXXXXXXXXX#         ",
"         .XXXXXXXXXXXXXXXXXXXXXXXXXXXXXXXXXXXXXXXXXXXXXXXXXXXXXXXXXXXXXXXXXXXXXXXXXXXXXXXXXXXXXXXXXXXXX#         ",
"        .XXXXXXXXXXXXXXXXXXXXXXXXXXXXXXXXXXXXXXXXXXXXXXXXXXXXXXXXXXXXXXXXXXXXXXXXXXXXXXXXXXXXXXXXXXXXXXX#        ",
"        .XXXXXXXXXXXXXXXXXXXXXXXXXXXXXXXXXXXXXXXXXXXXXXXXXXXXXXXXXXXXXXXXXXXXXXXXXXXXXXXXXXXXXXXXXXXXXXX#        ",
"       .XXXXXXXXXXXXXXXXXXXXXXXXXXXXXXXXXXXXXXXXXXXXXXXXXXXXXXXXXXXXXXXXXXXXXXXXXXXXXXXXXXXXXXXXXXXXXXXXX#       ",
"       .XXXXXXXXXXXXXXXXXXXXXXXXXXXXXXXXXXXXXXXXXXXXXXXXXXXXXXXXXXXXXXXXXXXXXXXXXXXXXXXXXXXXXXXXXXXXXXXXX#       ",
"      .XooooXXXXXXXXXXXXXXXXXXXXXXXXXXXXXXXXXXXXXXXXXXXXXXXXXXXXXXXXXXXXXXXXXXXXXXXXXXXXXXXXXXXXXXXoooooXX#      ",
"      .XooooXXoXXXXXXXXXXXXXXXXXXXXXXXXXXXXXXXXXXXXXXXXXXXXXXXXXXXXXXXXXXXXXXXXXXXXXXXXXXXXXXXXXXoXXooooXX#      ",
"     .XXooooXXooXXXXXXXXXXXXXXXXXXXXXXXXXXXXXXXXXXXXXXXXXXXXXXXXXXXXXXXXXXXXXXXXXXXXXXXXXXXXXXXXooXXooooXXX#     ",
"     .XXooooXXoooXXXXXXXXXXXXXXXXXXXXXXXXXXXXXXXXXXXXXXXXXXXXXXXXXXXXXXXXXXXXXXXXXXXXXXXXXXXXXXoooXXooooXXX#     ",
"    .XXXooooXXoooXXXXXXXXXXXXXXXXXXXXXXXXXXXXXXXXXXXXXXXXXXXXXXXXXXXXXXXXXXXXXXXXXXXXXXXXXXXXXooooXXooooXXXX#    ",
"    .XXXooooXXooXXXXXXXXXXXXXXXXXXXXXXXXXXXXXXXXXXXXXXXXXXXXXXXXXXXXXXXXXXXXXXXXXXXXXXXXXXXXXXXoooXXooooXXXX#    ",
"    .XXXooooXXoXXXXXXXXXXXXXXXXXXXXXXXXXXXXXXXXXXXXXXXXXXXXXXXXXXXXXXXXXXXXXXXXXXXXXXXXXXXXXXXXXooXXooooXXXX#    ",
"   .XXXoooooXXXXXXXXXXXXXXXXXXXXXXXXXXXXXXXXXXXXXXXXXXXXXXXXXXXXXXXXXXXXXXXXXXXXXXXXXXXXXXXXXXXXXoXXooooXXXXX#   ",
"   .XXXXXXXXXXXXXXXXXXXXXXXXXXXXXXXXXXXXXXXXXXXXXXXXXXXXXXXXXXXXXXXXXXXXXXXXXXXXXXXXXXXXXXXXXXXXXXXXXXXXXXXXX#   ",
"   .XXXXXXXXXXXXXXXXXXXXXXXXXXXXXXXXXXXXXXXXXXXXXXXXXXXXXXXXXXXXXXXXXXXXXXXXXXXXXXXXXXXXXXXXXXXXXXXXXXXXXXXXX#   ",
"   .$$$$XXXXXXXXXXXXXXXXXXXXXXXXXXXXXXXXXXXXXXXXXXXXXXXXXXXXXXXXXXXXXXXXXXXXXXXXXXXXXXXXXXXXXXXXXXXXXXXX$$$$X#   ",
"  .X$$$$XXXXX........................XXXXXXXXXXXXXXXXXXXXXXXXXXXXXXXXXXXXX........................XXXXXX$$$$XX#  ",
"  .X$$$$XXXXX.%%%%%%%%%%%%%%%%%%%%%%%#XXXXXXXXXXXXXXXXXXXXXXXXXXXXXXXXXXXX.%%%%%%%%%%%%%%%%%%%%%%%#XXXXX$$$$XX#  ",
"  .X$$$$XXXXX.%%%%%%%%%%%%%%%%%%%%%%%#XXXXXXXXXXXXXXXXXXXXXXXXXXXXXXXXXXXX.%%%%%%%%%%%%%%%%%%%%%%%#XXXXX$$$$XX#  ",
"  .X$$$$XXXXX.%%%%%%%%%%%%%%%%%%%%%%%#XXXXXXXXXXXXXXXXXXXXXXXXXXXXXXXXXXXX.%%%%%%%%%%%%%%%%%%%%%%%#XXXXX$$$$XX#  ",
"  .X$$$$XXXXX.%%%%%%%%%%%%%%%%%%%%%%%#XXXXXXXXXXXXXXXXXXXXXXXXXXXXXXXXXXXX.%%%%%%%%%%%&%%%%%%%%%%%#XXXXX$$$$XX#  ",
" .XX$$$$XXXXX.%%%%%%%%%%%%%%%%%%%%%%%#XXXXXXXXXXXXXXXXXXXXXXXXXXXXXXXXXXXX.%%%%%%%%%%&&&%%%%%%%%%%#XXXXX$$$$XXX# ",
" .XX$$$$XXXXX.%%%%%%%%%%%%%%%%%%%%%%%#XXXXXXXXXXXXXXXXXXXXXXXXXXXXXXXXXXXX.%%%%%%%%%%&&%&%%%%%%%%%#XXXXX$$$$XXX# ",
" .XX$$$$XXXXX.%%%%%%%%%%%%%%%%%%%%%%%#XXXXXXXXXXXXXXXXXXXXXXXXXXXXXXXXXXXX.%%%%%%%%%&%&%&%%%%%%%%%#XXXXX$$$$XXX# ",
" .XX$$$$XXXXX.%%%%%%%%%%%%%%%%%%%%%%%#XXXXXXXXXXXXXXXXXXXXXXXXXXXXXXXXXXXX.%%%%%%%%&%%&%%&%%%%%%%%#XXXXX$$$$XXX# ",
" .XX$$$$XXXXX.%%%%%%%%%%%%%%%%%%%%%%%#XXXXXXXXXXXXXXXXXXXXXXXXXXXXXXXXXXXX.%%%%%%%%%%%&%%%%%%%%%%%#XXXXX$$$$XXX# ",
" .XX$$$$XXXXX.%%%%%%%%%%%%%%%%%%%%%%%#XXXXXXXXXXXXXXXXXXXXXXXXXXXXXXXXXXXX.%%%%%%%%%%%&%%%%%%%%%%%#XXXXX$$$$XXX# ",
" .XX$$$$XXXXX.%%%%%%%%%%%&%%%%%%%%%%%#XXXXXXXXXXXXXXXXXXXXXXXXXXXXXXXXXXXX.%%%%%%%%%%%&%%%%%%%%%%%#XXXXX$$$$XXX# ",
" .XX$$$$#####.%%%%%%%%%%&&&%%%%%%%%%%#XXXXXXXXXXXXXXXXXXXXXXXXXXXXXXXXXXXX.%%%%%%%%%%%&%%%%%%%%%%%######$$$$XXX# ",
" .XX$$$$XXXXX.%%%%%%%%%%&&%&%%%%%%%%%#XXXXXXXXXXXXXXXXXXXXXXXXXXXXXXXXXXXX.%%%%%%%%%%%&%%%%%%%%%%%#XXXXX$$$$XXX# ",
" .XX$$$$XXXXX.%%%%%%%%%&%%%&%%%%%%%%%#XXXXXXXXXXXXXXXXXXXXXXXXXXXXXXXXXXXX.%%%%%%%%%%%&%%%%%%%%%%%#XXXXX$$$$XXX# ",
" .XX$$$$XXXXX.%%%%%%%%&%%%%%&%%%%%%%%#XXXXXXXXXXXXXXXXXXXXXXXXXXXXXXXXXXXX.%%%%%%%%%%%&%%%%%%%%%%%#XXXXX$$$$XXX# ",
" .XX$$$$XXXXX.%%%%%%%%%%%%%%%%%%%%%%%#XXXXXXXXXXXXXXXXXXXXXXXXXXXXXXXXXXXX.%%%%%%%%%%%&%%%%%%%%%%%#XXXXX$$$$XXX# ",
" .XX$$$$XXXXX.%%%%%%%%%%%%%%%%%%%%%%%#XXXXXXXXXXXXXXXXXXXXXXXXXXXXXXXXXXXX.%%%%%%%%%%%&%%%%%%%%%%%#XXXXX$$$$XXX# ",
" .XX$$$$XXXXX.%%%%%%%%%%%%%%%%%%%%%%%#XXXXXXXXXXXXXXXXXXXXXXXXXXXXXXXXXXXX.%%%%%%%%%%%&%%%%%%%%%%%#XXXXX$$$$XXX# ",
" .XX$$$$XXXXX.%%%%%%%%%%%%%%%%%%%%%%%#XXXXXXXXXXXXXXXXXXXXXXXXXXXXXXXXXXXX.%%%%%%%%%%%&%%%%%%%%%%%#XXXXX$$$$XXX# ",
"  .X$$$$XXXXX.%%%%%%%%%%%%%%%%%%%%%%%#XXXXXXXXXXXXXXXXXXXXXXXXXXXXXXXXXXXX.%%%%%%%%%%%&%%%%%%%%%%%#XXXXX$$$$XX#  ",
"  .X$$$$XXXXX.%%%%%%%%%%%%%%%%%%%%%%%#XXXXXXXXXXXXXXXXXXXXXXXXXXXXXXXXXXXX.%%%%%%%%%%%%%%%%%%%%%%%#XXXXX$$$$XX#  ",
"  .X$$$$XXXXX.%%%%%%%%%%%%%%%%%%%%%%%#XXXXXXXXXXXXXXXXXXXXXXXXXXXXXXXXXXXX.%%%%%%%%%%%%%%%%%%%%%%%#XXXXX$$$$XX#  ",
"  .X$$$$XXXXX.%%%%%%%%%%%%%%%%%%%%%%%#XXXXXXXXXXXXXXXXXXXXXXXXXXXXXXXXXXXX.%%%%%%%%%%%%%%%%%%%%%%%#XXXXX$$$$XX#  ",
"  .X$$$$XXXXXX########################XXXXXXXXXXXXXXXXXXXXXXXXXXXXXXXXXXXXX########################XXXXX$$$$XX#  ",
"   .XXXXXXXXXXXXXXXXXXXXXXXXXXXXXXXXXXXXXXXXXXXXXXXXXXXXXXXXXXXXXXXXXXXXXXXXXXXXXXXXXXXXXXXXXXXXXXXXXXXXXXXXX#   ",
"   .XXXXXXXXXXXXXXXXXXXXXXXXXXXXXXXXXXXXXXXXXXXXXXXXXXXXXXXXXXXXXXXXXXXXXXXXXXXXXXXXXXXXXXXXXXXXXXXXXXXXXXXXX#   ",
"   .XXXXXXXXXXXXXXXXXXXXXXXXXXXXXXXXXXXXXXXXXXXXXXXXXXXXXXXXXXXXXXXXXXXXXXXXXXXXXXXXXXXXXXXXXXXXXXXXXXXXXXXXX#   ",
"   .XXXXXXXXXXXXXXXXXXXXXXXXXXXXXXXXXXXXXXXXXXXXXXXXXXXXXXXXXXXXXXXXXXXXXXXXXXXXXXXXXXXXXXXXXXXXXXXXXXXXXXXXX#   ",
"    .XXXXXXXXXXXXXXXXXXXXXXXXXXXXXXXXXXXXXXXXXXXXXXXXXXXXXXXXXXXXXXXXXXXXXXXXXXXXXXXXXXXXXXXXXXXXXXXXXXXXXXX#    ",
"    .XXXXXXXXXXXXXXXXXXXXXXXXXXXXXXXXXXXXXXXXXXXXXXXXXXXXXXXXXXXXXXXXXXXXXXXXXXXXXXXXXXXXXXXXXXXXXXXXXXXXXXX#    ",
"    .XXXXXXXXXXXXXXXXXXXXXXXXXXXXXXXXXXXXXXXXXXXXXXXXXXXXXXXXXXXXXXXXXXXXXXXXXXXXXXXXXXXXXXXXXXXXXXXXXXXXXXX#    ",
"     .XXXXXXXXXXXXXXXXXXXXXXXXXXXXXXXXXXXXXXXXXXXXXXXXXXXXXXXXXXXXXXXXXXXXXXXXXXXXXXXXXXXXXXXXXXXXXXXXXXXXX#     ",
"     .XXXXXXXXXXXXXXXXXXXXXXXXXXXXXXXXXXXXXXXXXXXXXXXXXXXXXXXXXXXXXXXXXXXXXXXXXXXXXXXXXXXXXXXXXXXXXXXXXXXXX#     ",
"      .XXXXXXXXXXXXXXXXXXXXXXXXXXXXXXXXXXXXXXXXXXXXXXXXXXXXXXXXXXXXXXXXXXXXXXXXXXXXXXXXXXXXXXXXXXXXXXXXXXX#      ",
"      .XXXXXXXXXXXXXXXXXXXXXXXXXXXXXXXXXXXXXXXXXXXXXXXXXXXXXXXXXXXXXXXXXXXXXXXXXXXXXXXXXXXXXXXXXXXXXXXXXXX#      ",
"       .XXXXXXXXXXXXXXXXXXXXXXXXXXXXXXXXXXXXXXXXXXXXXXXXXXXXXXXXXXXXXXXXXXXXXXXXXXXXXXXXXXXXXXXXXXXXXXXXX#       ",
"       .XXXXXXXXXXXXXXXXXXXXXXXXXXXXXXXXXXXXXXXXXXXXXXXXXXXXXXXXXXXXXXXXXXXXXXXXXXXXXXXXXXXXXXXXXXXXXXXXX#       ",
"        .XXXXXXXXXXXXXXXXXXXXXXXXXXXXXXXXXXXXXXXXXXXXXXXXXXXXXXXXXXXXXXXXXXXXXXXXXXXXXXXXXXXXXXXXXXXXXXX#        ",
"        .XXXXXXXXXXXXXXXXXXXXXXXXXXXXXXXXXXXXXXXXXXXXXXXXXXXXXXXXXXXXXXXXXXXXXXXXXXXXXXXXXXXXXXXXXXXXXXX#        ",
"         .XXXXXXXXXXXXXXXXXXXXXXXXXXXXXXXXXXXXXXXXXXXXXXXXXXXXXXXXXXXXXXXXXXXXXXXXXXXXXXXXXXXXXXXXXXXXX#         ",
"         .XXXXXXXXXXXXXXXXXXXXXXXXXXXXXXXXXXXXXXXXXXXXXXXXXXXXXXXXXXXXXXXXXXXXXXXXXXXXXXXXXXXXXXXXXXXXX#         ",
"          .XXXXXXXXXXXXXXXXXXXXXXXXXXXXXXXXXXXXXXXXXXXXXXXXXXXXXXXXXXXXXXXXXXXXXXXXXXXXXXXXXXXXXXXXXXX#          ",
"           .XXXXXXXXXXXXXXXXXXXXXXXXXXXXXXXXXXXXXXXXXXXXXXXXXXXXXXXXXXXXXXXXXXXXXXXXXXXXXXXXXXXXXXXXX#           ",
"           .XXXXXXXXXXXXXXXXXXXXXXXXXXXXXXXXXXXXXXXXXXXXXXXXXXXXXXXXXXXXXXXXXXXXXXXXXXXXXXXXXXXXXXXXX#           ",
"            .XXXXXXXXXXXXXXXXXXXXXXXXXXXXXXXXXXXXXXXXXXXXXXXXXXXXXXXXXXXXXXXXXXXXXXXXXXXXXXXXXXXXXXX#            ",
"             .XXXXXXXXXXXXXXXXXXXXXXXXXXXXXXXXXXXXXXXXXXXXXXXXXXXXXXXXXXXXXXXXXXXXXXXXXXXXXXXXXXXXX#             ",
"              #XXXXXXXXXXXXXXXXXXXXXXXXXXXXXXXXXXXXXXXXXXXXXXXXXXXXXXXXXXXXXXXXXXXXXXXXXXXXXXXXXXX#              ",
"               #XXXXXXXXXXXXXXXXXXXXXXXXXXXXXXXXXXXXXXXXXXXXXXXXXXXXXXXXXXXXXXXXXXXXXXXXXXXXXXXXX#               ",
"               #XXXXXXXXXXXXXXXXXXXXXXXXXXXXXXXXXXXXXXXXXXXXXXXXXXXXXXXXXXXXXXXXXXXXXXXXXXXXXXXXX#               ",
"                #XXXXXXXXXXXXXXXXXXXXXXXXXXXXXXXXXXXXXXXXXXXXXXXXXXXXXXXXXXXXXXXXXXXXXXXXXXXXXXX#                ",
"                 #XXXXXXXXXXXXXXXXXoooXXXXXXXXXXXXXXXXXXXXXXXXXXXXXXXXXXXoooXXXXXXXXXXXXXXXXXXX#                 ",
"                  #XXXXXXXXXXXXXXXoooooXXXXXXXXXXXXXXXXXXXXXXXXXXXXXXXXXoooooXXXXXXXXXXXXXXXXX#                  ",
"                   ##XXXXXXXXXXXXoooooooXXXXXXXXXXXXXXXXXXXXXXXXXXXXXXXoooooooXXXXXXXXXXXXXX##                   ",
"                     #XXXXXXXXXXXXXXXXXXXXXXXXXXXXXXXXXXXXXXXXXXXXXXXXXXXXXXXXXXXXXXXXXXXXX#                     ",
"                      #XXXXXXXXXXXXXXXXXXXXXXXXXXXXXXXXXXXXXXXXXXXXXXXXXXXXXXXXXXXXXXXXXXX#                      ",
"                       #XXXXXXXXoooooooooXXXXXXXXXXXXXXXXXXXXXXXXXXXXXoooooooooXXXXXXXXXX#                       ",
"                        ##XXXXXXXooooooooXXXXXXXXXXXXXXXXXXXXXXXXXXXXXXooooooooXXXXXXXX##                        ",
"                          #XXXXXXooooooooXXXXXXXXXXXXXXXXXXXXXXXXXXXXXXooooooooXXXXXXX#                          ",
"                           ##XXXXooooooooXXXXXXXXXXXXXXXXXXXXXXXXXXXXXXooooooooXXXXX##                           ",
"                             ##XXXXXXXXXXXXXXXXXXXXXXXXXXXXXXXXXXXXXXXXXXXXXXXXXXX##                             ",
"                               ##XXXXXXXXXXXXXXXXXXXXXXXXXXXXXXXXXXXXXXXXXXXXXXX##                               ",
"                                 ##XXXXXXXXXXXXXXXXXXXXXXXXXXXXXXXXXXXXXXXXXXX##                                 ",
"                                   ##XXXXXXXXXXXXXXXXXXXXXXXXXXXXXXXXXXXXXXX##                                   ",
"                                     ###XXXXXXXXXXXXXXXXXXXXXXXXXXXXXXXXX###                                     ",
"                                        ####XXXXXXXXXXXXXXXXXXXXXXXXX####                                        ",
"                                            #####XXXXXXXXXXXXXXX#####                                            ",
"                                                 ###############                                                 ",
"                                                                                                                 "};
